HIERARCHY
ROOT Hips
{
	OFFSET	0.00	0.00	0.00
	CHANNELS 6 Xposition Yposition Zposition Zrotation Xrotation Yrotation
	JOINT Chest
	{
		OFFSET	0.000000	6.275751	0.000000
		CHANNELS 3 Zrotation Xrotation Yrotation
		JOINT Neck
		{
			OFFSET	0.000000	14.296947	0.000000
			CHANNELS 3 Zrotation Xrotation Yrotation
			JOINT Head
			{
				OFFSET	0.000000	2.637461	0.000000
				CHANNELS 3 Zrotation Xrotation Yrotation
				End Site
				{
					OFFSET	0.000000	4.499004	0.000000
				}
			}
		}
		JOINT LeftCollar
		{
			OFFSET	1.120000	11.362855	1.870000
			CHANNELS 3 Zrotation Xrotation Yrotation
			JOINT LeftUpArm
			{
				OFFSET	4.565688	2.019026	-1.821179
				CHANNELS 3 Zrotation Xrotation Yrotation
				JOINT LeftLowArm
				{
					OFFSET	0.219729	-10.348825	-0.061708
					CHANNELS 3 Zrotation Xrotation Yrotation
					JOINT LeftHand
					{
						OFFSET	0.087892	-10.352228	2.178217
						CHANNELS 3 Zrotation Xrotation Yrotation
						End Site
						{
							OFFSET	0.131837	-6.692379	1.711456
						}
					}
				}
			}
		}
		JOINT RightCollar
		{
			OFFSET	-1.120000	11.362855	1.870000
			CHANNELS 3 Zrotation Xrotation Yrotation
			JOINT RightUpArm
			{
				OFFSET	-4.708080	2.034554	-1.821179
				CHANNELS 3 Zrotation Xrotation Yrotation
				JOINT RightLowArm
				{
					OFFSET	-0.263676	-10.428555	-0.061708
					CHANNELS 3 Zrotation Xrotation Yrotation
					JOINT RightHand
					{
						OFFSET	0.000000	-10.255345	2.178217
						CHANNELS 3 Zrotation Xrotation Yrotation
						End Site
						{
							OFFSET	-0.140882	-6.671274	1.711456
						}
					}
				}
			}
		}
	}
	JOINT LeftUpLeg
	{
		OFFSET	3.910000	0.000000	0.000000
		CHANNELS 3 Zrotation Xrotation Yrotation
		JOINT LeftLowLeg
		{
			OFFSET	-0.441177	-17.569450	1.695613
			CHANNELS 3 Zrotation Xrotation Yrotation
			JOINT LeftFoot
			{
				OFFSET	-0.043946	-17.197315	-1.478076
				CHANNELS 3 Zrotation Xrotation Yrotation
				End Site
				{
					OFFSET	0.000000	-3.933155	5.233925
				}
			}
		}
	}
	JOINT RightUpLeg
	{
		OFFSET	-3.910000	0.000000	0.000000
		CHANNELS 3 Zrotation Xrotation Yrotation
		JOINT RightLowLeg
		{
			OFFSET	0.437741	-17.622387	1.695613
			CHANNELS 3 Zrotation Xrotation Yrotation
			JOINT RightFoot
			{
				OFFSET	0.000000	-17.140001	-1.478076
				CHANNELS 3 Zrotation Xrotation Yrotation
				End Site
				{
					OFFSET	0.000000	-4.038528	5.233925
				}
			}
		}
	}
}
MOTION
Frames: 19
Frame Time: 0.04166667
-0.690203	6.425720	-10.584737	52.229530	-74.102905	54.238834	179.649963	-17.666151	-167.372177	129.716003	46.167301	78.632637	-139.149429	-18.268711	28.597200	13.089351	32.271912	-108.242935	-66.612633	-14.377330	172.605774	127.224365	7.939627	-35.629566	-77.307808	-16.582474	-16.542961	-34.179745	26.302034	121.727943	71.693901	-24.250698	36.331078	122.765602	-3.186730	-170.904297	-118.339615	-23.554710	168.573349	-62.883366	59.182331	0.000000	178.561584	5.510769	-166.239227	156.483154	28.179045	13.528916	-36.220818	-17.497885	15.374095	-136.325714	4.534697	-96.979958	-65.439178	-27.717817	-32.005501	
-24.621000	4.983383	3.630345	4.305589	-1.051469	82.825218	5.365799	4.798474	-1.285840	-2.774512	5.805560	-8.754252	-1.970283	-6.332117	-0.791529	-15.320271	9.357537	4.001647	24.866508	-18.483286	-44.061878	-5.589170	3.315705	3.948388	-17.516474	3.027297	-3.667508	12.671847	15.395897	-4.560732	-24.747482	-22.702202	30.155746	-6.977243	7.775560	2.651105	-1.174869	2.399714	-0.252005	-0.780229	0.618581	11.284708	-2.810372	15.871985	-5.671987	3.121601	-9.607279	0.059886	0.993559	-15.627186	2.320962	-1.607830	42.007072	-26.353664	-11.508097	2.816658	6.840989	
-24.639462	4.978636	3.581921	4.307425	-1.040734	82.647209	5.326290	4.835059	-1.251264	-2.790850	5.827223	-8.921943	-1.928070	-6.261059	-0.772261	-15.267647	9.270088	3.972393	24.710478	-18.478729	-43.179169	-5.652803	3.386982	3.951653	-16.611702	2.970760	-3.483305	12.656715	15.274080	-4.573226	-24.866354	-21.800602	31.222618	-7.709924	8.850190	2.354347	0.025936	2.397027	0.005598	-0.848401	0.646259	11.634108	-2.843147	15.807477	-5.831017	3.272879	-9.592238	0.069214	0.812799	-14.587213	3.032998	-1.166034	40.370590	-23.421865	-9.970093	-0.032181	6.090203	
-24.640451	4.969101	3.542184	4.367122	-1.135136	82.474457	5.395251	4.840412	-1.234404	-2.785999	5.905787	-9.012040	-1.945610	-6.213769	-0.777745	-15.227680	9.249295	3.923192	24.496655	-18.392559	-43.328911	-5.563558	3.370522	3.899779	-16.841814	2.984895	-3.530236	12.757237	15.125719	-4.550969	-25.350807	-20.873241	30.786627	-8.209141	9.482289	2.090751	2.521678	2.409049	0.540694	-0.799954	0.668849	11.916431	-2.863144	15.947328	-5.883357	3.336188	-9.687178	0.079279	0.574891	-13.364128	4.381807	-0.661622	37.847054	-20.031397	-8.202605	-1.663439	5.658335	
-24.642990	4.970914	3.507535	4.512838	-1.148310	82.423691	5.362216	5.029918	-1.365762	-2.734925	5.855799	-8.885247	-1.953434	-6.203989	-0.780553	-15.378834	9.529253	4.124153	24.441982	-18.844198	-43.229046	-5.548934	3.350692	3.871752	-16.249445	2.948999	-3.409350	13.076243	15.300087	-4.830122	-26.017530	-20.716766	28.733067	-8.249468	9.405490	1.955971	7.233490	2.494832	1.547600	-0.897041	0.864983	11.828925	-2.843701	15.826204	-5.811883	3.384248	-9.674291	0.081820	0.165568	-11.834096	5.821284	-0.291990	34.450386	-17.798746	-5.947649	-2.229549	5.416404	
-24.649431	4.973826	3.486195	4.658071	-1.147148	82.449043	5.263509	5.203377	-1.520049	-2.631062	5.805932	-8.721859	-1.887480	-6.118398	-0.751461	-15.403557	9.737946	4.320899	24.304544	-19.269817	-43.216015	-5.513453	3.287802	3.858401	-16.371384	2.956365	-3.434237	13.293297	15.441704	-5.124379	-26.350813	-20.673450	21.943771	-8.512753	9.012379	1.774590	8.090397	2.519320	1.729833	-1.003879	1.016266	11.557890	-2.799163	15.747044	-5.634399	3.395785	-9.633634	0.080083	-0.291817	-10.022275	6.901887	0.059085	30.527323	-15.441609	-3.272937	-2.406830	5.218137	
-24.648094	4.963486	3.485674	4.800629	-1.248081	82.443283	5.176326	5.179775	-1.560050	-2.463112	5.962863	-8.638100	-1.818946	-5.916302	-0.717979	-15.220122	9.594017	4.292406	24.033329	-19.189230	-43.674892	-5.401586	3.191409	3.792673	-16.396769	2.957740	-3.439482	13.254946	15.086433	-5.023615	-26.266249	-19.336351	21.232918	-8.708547	8.323054	1.602686	8.036450	2.517668	1.718376	-0.946303	1.087766	11.444144	-2.764734	15.924742	-5.455989	3.394527	-9.813030	0.091125	-0.567737	-8.266223	8.750942	0.456945	27.446667	-12.023261	-0.788224	-3.156554	5.041604	
-24.633501	4.943769	3.501456	4.901740	-1.391620	82.250290	5.116288	4.856475	-1.404288	-2.339122	6.399569	-8.579128	-1.747144	-5.616108	-0.680779	-14.839138	9.088361	4.023316	23.600367	-18.518135	-43.575333	-5.310258	3.153799	3.742790	-16.664497	2.973950	-3.494135	13.011005	14.337380	-4.593136	-26.109886	-17.312647	20.660591	-8.190276	7.079574	1.545807	5.705492	2.457940	1.221867	-0.774293	1.082056	11.532276	-2.758044	16.285057	-5.374768	3.345639	-10.063546	0.102960	-0.582340	-7.056035	10.115811	0.840432	25.860888	-8.342594	-0.945403	-4.178671	5.033037	
-24.624348	4.930837	3.514245	4.898131	-1.344954	81.989388	4.860485	4.382566	-1.181104	-2.248014	6.824468	-8.624985	-1.660214	-5.171659	-0.634416	-14.531516	8.781299	3.883121	23.253105	-18.109659	-43.651279	-5.321557	3.127882	3.711878	-15.543475	2.907826	-3.264820	12.960702	13.709129	-4.305218	-25.942488	-15.914564	20.459026	-7.473868	6.227530	1.561901	2.029654	2.404895	0.435232	-0.788530	1.082007	11.786839	-2.765378	16.373625	-5.405242	3.302921	-10.187653	0.107234	-0.486342	-6.981935	10.480681	0.952628	26.390911	-7.148959	0.466210	-4.924480	4.988774	
-24.614035	4.920248	3.528357	4.917271	-1.187364	81.693413	4.551198	3.932573	-1.066864	-2.249020	7.219225	-8.388064	-1.680583	-4.751877	-0.630244	-14.246439	8.455853	3.838695	22.847965	-17.703053	-44.030869	-5.319984	3.084082	3.722314	-15.727687	2.918502	-3.302529	12.855987	13.135870	-4.065029	-25.466208	-15.132031	19.445480	-7.094580	5.771142	1.605700	-1.632711	2.402133	-0.350154	-0.927795	1.156813	12.123567	-2.775094	16.323071	-5.467307	3.294436	-10.208496	0.107840	-0.535689	-6.820553	10.594935	1.025979	26.993422	-6.377719	0.212278	-5.456372	4.996478	
-24.594580	4.896291	3.542222	4.955852	-1.205598	81.346809	4.559138	3.501887	-0.864266	-2.328462	7.635275	-8.116927	-1.900548	-4.383901	-0.700906	-13.861134	7.947374	3.601883	22.209515	-17.045200	-43.653919	-5.349568	3.127251	3.758612	-16.299015	2.951881	-3.419491	12.453470	12.420097	-3.832473	-24.551807	-14.540257	17.883362	-7.358557	5.669051	1.672400	-4.621211	2.437006	-0.990197	-0.870126	1.163558	12.502492	-2.800478	16.568684	-5.508123	3.311615	-10.471245	0.125073	-0.466626	-6.598173	10.751953	1.052047	27.334017	-6.105777	-0.265374	-5.763508	5.001396	
-24.585938	4.894917	3.549018	5.137850	-1.136556	81.196236	4.428692	3.431018	-0.854188	-2.315167	7.808103	-7.823654	-2.176688	-3.993576	-0.788360	-13.762486	7.872014	3.598322	21.873940	-17.131184	-43.461922	-5.357195	3.174287	3.788579	-17.175388	3.005551	-3.598187	12.496732	12.298929	-3.947913	-23.894384	-15.154636	17.954136	-8.085346	6.191600	1.637268	-4.744064	2.439193	-1.016462	-0.969139	1.422939	12.649251	-2.798942	16.467548	-5.493953	3.276323	-10.494938	0.123564	-0.618525	-6.123672	10.349769	1.060959	26.883497	-6.066778	-0.296862	-5.964681	5.000607	
-24.582699	4.905461	3.551477	5.244588	-1.048911	81.172729	4.365665	3.287968	-1.026609	-2.370571	7.957299	-7.558112	-2.377724	-3.571403	-0.844105	-13.778220	7.705957	3.559591	21.670191	-17.091888	-43.931240	-5.441179	3.132620	3.856095	-17.368805	3.017827	-3.637513	12.501844	12.377039	-4.067901	-23.248035	-16.314793	17.011400	-9.109988	7.182513	1.572096	-4.052301	2.427760	-0.868505	-1.101093	1.650482	12.670420	-2.789552	16.205460	-5.485549	3.205883	-10.403388	0.112337	-0.880572	-5.714080	9.767307	1.111098	26.369329	-5.617290	-0.504143	-6.135737	5.000021	
-24.574686	4.895542	3.556625	5.205322	-1.156290	81.037323	4.641379	2.887645	-1.086276	-2.553129	8.235147	-7.309136	-2.454079	-3.120843	-0.852298	-13.753152	7.264834	3.321918	21.394449	-16.540058	-45.140381	-5.501071	2.971409	3.925074	-17.689837	3.038358	-3.702714	12.121416	12.218127	-3.985255	-22.624458	-17.229841	16.014183	-9.725764	8.383834	1.533309	-4.150175	2.429290	-0.889429	-0.956434	1.562233	12.828801	-2.810775	16.426289	-5.514464	3.273043	-10.574504	0.128060	-0.945893	-5.478531	9.421659	1.171322	25.941782	-5.064122	-0.579279	-6.302752	4.998405	
-24.580656	4.891702	3.564138	5.306226	-1.175662	80.900032	4.679701	2.835850	-1.143568	-2.607805	8.309472	-7.086541	-2.505914	-2.776708	-0.855506	-13.762193	7.140070	3.345904	21.207418	-16.611214	-45.485138	-5.480937	2.898134	3.930840	-18.052076	3.061970	-3.776124	11.992813	12.218042	-4.027055	-22.462330	-18.180775	21.094774	-9.416367	9.452219	1.508719	-1.197790	2.399904	-0.256917	-0.935217	1.651075	12.982896	-2.820903	16.476721	-5.535920	3.331850	-10.596982	0.134404	-1.063120	-5.238816	9.058518	1.219517	25.661911	-4.602774	-0.805446	-6.367685	4.997130	
-24.595980	4.889765	3.576337	5.351871	-1.141888	80.838562	4.549496	2.728376	-1.194848	-2.531349	8.397812	-6.940048	-2.502393	-2.596566	-0.846549	-13.662374	7.109224	3.331262	21.067806	-16.737877	-45.022972	-5.466045	2.837927	3.871083	-16.483334	2.962953	-3.457176	12.003764	12.092384	-3.916167	-22.428875	-19.065090	21.628960	-9.098096	9.827325	1.619663	-1.015272	2.399147	-0.217758	-0.959912	1.688206	12.997105	-2.817138	16.460228	-5.516442	3.308364	-10.626051	0.134160	-1.219370	-4.982122	8.837236	1.260737	25.281603	-4.214369	-0.829740	-6.564670	4.994218	
-24.621279	4.903998	3.601943	5.549153	-0.973220	80.954346	3.934545	2.971372	-1.140816	-2.085829	8.271229	-7.137019	-2.486374	-2.535211	-0.838495	-13.827297	8.107417	3.661141	21.515821	-18.135944	-45.536144	-5.355273	2.727635	3.720078	-14.278619	2.838700	-3.004665	12.678921	12.174204	-4.135001	-22.715200	-20.251141	23.238543	-8.640815	9.794676	1.825163	-1.143130	2.399522	-0.245174	-1.149362	1.961769	12.864635	-2.801078	16.136169	-5.511609	3.263879	-10.409001	0.117392	-1.423872	-4.584926	8.284566	1.276852	24.889734	-4.082552	-1.161935	-6.650803	4.990400	
-24.629324	4.901261	3.637246	5.680390	-1.006955	81.022552	3.793753	2.942479	-1.108385	-1.986763	8.386218	-7.279370	-2.402113	-2.550228	-0.810668	-13.697178	8.081727	3.593846	21.447687	-18.170975	-45.633709	-5.195400	2.678835	3.609193	-14.121588	2.830502	-2.972253	12.683527	11.896200	-3.899531	-22.594738	-20.569418	25.073185	-8.293542	9.625039	2.039222	-1.589175	2.401806	-0.340805	-1.081210	2.065769	12.735020	-2.795113	16.196310	-5.467895	3.241402	-10.493850	0.120581	-1.319327	-4.334854	8.116503	1.256122	24.733667	-4.304574	-1.230096	-6.717576	4.988403	
-24.657316	4.934149	3.672768	6.257409	-0.796948	81.394585	3.284246	3.943280	-1.415302	-1.892671	7.847405	-7.517321	-2.211958	-2.600348	-0.748329	-14.336352	9.146668	4.403370	22.070671	-20.143227	-45.545517	-5.010543	2.602625	3.512402	-14.679433	2.859988	-3.087249	13.591113	12.946467	-4.449970	-23.163996	-22.826958	27.543793	-7.977465	9.316102	2.286182	-2.773027	2.411461	-0.594557	-1.389984	2.856624	12.331748	-2.758259	15.524320	-5.445457	3.190003	-10.116079	0.094242	-1.540061	-3.682155	7.825843	1.228688	24.559757	-4.591060	-1.050480	-6.696982	4.990372	
